<svg version="1.1" xmlns="http://www.w3.org/2000/svg" width="1339.38pt" height="2468pt" viewBox="0 0 1339.38 2468"><style type="text/css">.dashed {stroke-dasharray: 5,5} .dotted {stroke-dasharray: 1,5} .overlay {fill: none; pointer-events: all}</style><g><g transform="translate(4, 2464)"><polygon stroke="#fffffe" stroke-opacity="0" fill="#ffffff" points="-4,4 -4,-2464 1335.38,-2464 1335.38,4"></polygon><g class="node"><title>start</title><path stroke="#000000" fill="none" d="M 283.08,-2442 m -27.82,0 a 27.82,18 0 1,0 55.64,0 a 27.82,18 0 1,0 -55.64,0"></path><text x="283.08" y="-2437.8" text-anchor="middle" font-family="'Times-Roman',serif" font-size="14" fill="#000000">start</text></g><g class="node"><title>templatePreparing</title><path stroke="#000000" fill="none" d="M 283.08,-2353.2 m -81.66,0 a 81.66,18 0 1,0 163.32,0 a 81.66,18 0 1,0 -163.32,0"></path><text x="283.08" y="-2349" text-anchor="middle" font-family="'Times-Roman',serif" font-size="14" fill="#000000">templatePreparing</text></g><g class="node"><title>templatePrepared</title><path stroke="#000000" fill="none" d="M 283.08,-2264.4 m -78.71,0 a 78.71,18 0 1,0 157.42,0 a 78.71,18 0 1,0 -157.42,0"></path><text x="283.08" y="-2260.2" text-anchor="middle" font-family="'Times-Roman',serif" font-size="14" fill="#000000">templatePrepared</text></g><g class="node"><title>templatePendingAcceptanceByVendor</title><path stroke="#000000" fill="none" d="M 283.08,-2175.6 m -161.4,0 a 161.4,18 0 1,0 322.8,0 a 161.4,18 0 1,0 -322.8,0"></path><text x="283.08" y="-2171.4" text-anchor="middle" font-family="'Times-Roman',serif" font-size="14" fill="#000000">templatePendingAcceptanceByVendor</text></g><g class="node"><title>templateAcceptedByVendor</title><path stroke="#000000" fill="none" d="M 283.08,-2086.8 m -120.95,0 a 120.95,18 0 1,0 241.9,0 a 120.95,18 0 1,0 -241.9,0"></path><text x="283.08" y="-2082.6" text-anchor="middle" font-family="'Times-Roman',serif" font-size="14" fill="#000000">templateAcceptedByVendor</text></g><g class="node"><title>templateFixed</title><path stroke="#000000" fill="none" d="M 283.08,-1998 m -66.07,0 a 66.07,18 0 1,0 132.14,0 a 66.07,18 0 1,0 -132.14,0"></path><text x="283.08" y="-1993.8" text-anchor="middle" font-family="'Times-Roman',serif" font-size="14" fill="#000000">templateFixed</text></g><g class="node"><title>contractPreparing</title><path stroke="#000000" fill="none" d="M 283.08,-1909.2 m -79.85,0 a 79.85,18 0 1,0 159.7,0 a 79.85,18 0 1,0 -159.7,0"></path><text x="283.08" y="-1905" text-anchor="middle" font-family="'Times-Roman',serif" font-size="14" fill="#000000">contractPreparing</text></g><g class="node"><title>contractPrepared</title><path stroke="#000000" fill="none" d="M 283.08,-1820.4 m -76.4,0 a 76.4,18 0 1,0 152.8,0 a 76.4,18 0 1,0 -152.8,0"></path><text x="283.08" y="-1816.2" text-anchor="middle" font-family="'Times-Roman',serif" font-size="14" fill="#000000">contractPrepared</text></g><g class="node"><title>PendingL1Approval</title><path stroke="#000000" fill="none" d="M 283.08,-1731.6 m -89.77,0 a 89.77,18 0 1,0 179.54,0 a 89.77,18 0 1,0 -179.54,0"></path><text x="283.08" y="-1727.4" text-anchor="middle" font-family="'Times-Roman',serif" font-size="14" fill="#000000">PendingL1Approval</text></g><g class="node"><title>level1Approved</title><path stroke="#000000" fill="none" d="M 438.08,-1642.8 m -73.5,0 a 73.5,18 0 1,0 147,0 a 73.5,18 0 1,0 -147,0"></path><text x="438.08" y="-1638.6" text-anchor="middle" font-family="'Times-Roman',serif" font-size="14" fill="#000000">level1Approved</text></g><g class="node"><title>level1Declined</title><path stroke="#000000" fill="none" d="M 137.08,-1588.8 m -69.48,0 a 69.48,18 0 1,0 138.96,0 a 69.48,18 0 1,0 -138.96,0"></path><text x="137.08" y="-1584.6" text-anchor="middle" font-family="'Times-Roman',serif" font-size="14" fill="#000000">level1Declined</text></g><g class="node"><title>PendingL2Approval</title><path stroke="#000000" fill="none" d="M 499.08,-1534.8 m -89.77,0 a 89.77,18 0 1,0 179.54,0 a 89.77,18 0 1,0 -179.54,0"></path><text x="499.08" y="-1530.6" text-anchor="middle" font-family="'Times-Roman',serif" font-size="14" fill="#000000">PendingL2Approval</text></g><g class="node"><title>contractPendingCorrection</title><path stroke="#000000" fill="none" d="M 115.08,-1480.8 m -115.17,0 a 115.17,18 0 1,0 230.34,0 a 115.17,18 0 1,0 -230.34,0"></path><text x="115.08" y="-1476.6" text-anchor="middle" font-family="'Times-Roman',serif" font-size="14" fill="#000000">contractPendingCorrection</text></g><g class="node"><title>contractCorrectedIssue</title><path stroke="#000000" fill="none" d="M 509.08,-373.2 m -100.09,0 a 100.09,18 0 1,0 200.18,0 a 100.09,18 0 1,0 -200.18,0"></path><text x="509.08" y="-369" text-anchor="middle" font-family="'Times-Roman',serif" font-size="14" fill="#000000">contractCorrectedIssue</text></g><g class="node"><title>PendingL3Approval</title><path stroke="#000000" fill="none" d="M 499.08,-1318.8 m -89.77,0 a 89.77,18 0 1,0 179.54,0 a 89.77,18 0 1,0 -179.54,0"></path><text x="499.08" y="-1314.6" text-anchor="middle" font-family="'Times-Roman',serif" font-size="14" fill="#000000">PendingL3Approval</text></g><g class="node"><title>level2Approved</title><path stroke="#000000" fill="none" d="M 499.08,-1426.8 m -73.5,0 a 73.5,18 0 1,0 147,0 a 73.5,18 0 1,0 -147,0"></path><text x="499.08" y="-1422.6" text-anchor="middle" font-family="'Times-Roman',serif" font-size="14" fill="#000000">level2Approved</text></g><g class="node"><title>level2Declined</title><path stroke="#000000" fill="none" d="M 621.08,-1372.8 m -69.48,0 a 69.48,18 0 1,0 138.96,0 a 69.48,18 0 1,0 -138.96,0"></path><text x="621.08" y="-1368.6" text-anchor="middle" font-family="'Times-Roman',serif" font-size="14" fill="#000000">level2Declined</text></g><g class="node"><title>contractPendingCorrectionIssue</title><path stroke="#000000" fill="none" d="M 816.08,-462 m -134.85,0 a 134.85,18 0 1,0 269.7,0 a 134.85,18 0 1,0 -269.7,0"></path><text x="816.08" y="-457.8" text-anchor="middle" font-family="'Times-Roman',serif" font-size="14" fill="#000000">contractPendingCorrectionIssue</text></g><g class="node"><title>level3Approved</title><path stroke="#000000" fill="none" d="M 802.08,-1230 m -73.5,0 a 73.5,18 0 1,0 147,0 a 73.5,18 0 1,0 -147,0"></path><text x="802.08" y="-1225.8" text-anchor="middle" font-family="'Times-Roman',serif" font-size="14" fill="#000000">level3Approved</text></g><g class="node"><title>level3Declined</title><path stroke="#000000" fill="none" d="M 707.08,-1176 m -69.48,0 a 69.48,18 0 1,0 138.96,0 a 69.48,18 0 1,0 -138.96,0"></path><text x="707.08" y="-1171.8" text-anchor="middle" font-family="'Times-Roman',serif" font-size="14" fill="#000000">level3Declined</text></g><g class="node"><title>PendingL4Approval</title><path stroke="#000000" fill="none" d="M 825.08,-1122 m -89.77,0 a 89.77,18 0 1,0 179.54,0 a 89.77,18 0 1,0 -179.54,0"></path><text x="825.08" y="-1117.8" text-anchor="middle" font-family="'Times-Roman',serif" font-size="14" fill="#000000">PendingL4Approval</text></g><g class="node"><title>level4Approved</title><path stroke="#000000" fill="none" d="M 923.08,-1033.2 m -73.5,0 a 73.5,18 0 1,0 147,0 a 73.5,18 0 1,0 -147,0"></path><text x="923.08" y="-1029" text-anchor="middle" font-family="'Times-Roman',serif" font-size="14" fill="#000000">level4Approved</text></g><g class="node"><title>level4Declined</title><path stroke="#000000" fill="none" d="M 807.08,-979.2 m -69.48,0 a 69.48,18 0 1,0 138.96,0 a 69.48,18 0 1,0 -138.96,0"></path><text x="807.08" y="-975" text-anchor="middle" font-family="'Times-Roman',serif" font-size="14" fill="#000000">level4Declined</text></g><g class="node"><title>PendingL5Approval</title><path stroke="#000000" fill="none" d="M 924.08,-925.2 m -89.77,0 a 89.77,18 0 1,0 179.54,0 a 89.77,18 0 1,0 -179.54,0"></path><text x="924.08" y="-921" text-anchor="middle" font-family="'Times-Roman',serif" font-size="14" fill="#000000">PendingL5Approval</text></g><g class="node"><title>level5Approved</title><path stroke="#000000" fill="none" d="M 998.08,-836.4 m -73.5,0 a 73.5,18 0 1,0 147,0 a 73.5,18 0 1,0 -147,0"></path><text x="998.08" y="-832.2" text-anchor="middle" font-family="'Times-Roman',serif" font-size="14" fill="#000000">level5Approved</text></g><g class="node"><title>level5Declined</title><path stroke="#000000" fill="none" d="M 890.08,-782.4 m -69.48,0 a 69.48,18 0 1,0 138.96,0 a 69.48,18 0 1,0 -138.96,0"></path><text x="890.08" y="-778.2" text-anchor="middle" font-family="'Times-Roman',serif" font-size="14" fill="#000000">level5Declined</text></g><g class="node"><title>PreparingPartBSign</title><path stroke="#000000" fill="none" d="M 998.08,-728.4 m -88.06,0 a 88.06,18 0 1,0 176.12,0 a 88.06,18 0 1,0 -176.12,0"></path><text x="998.08" y="-724.2" text-anchor="middle" font-family="'Times-Roman',serif" font-size="14" fill="#000000">PreparingPartBSign</text></g><g class="node"><title>PendingPartBSign</title><path stroke="#000000" fill="none" d="M 998.08,-639.6 m -82.28,0 a 82.28,18 0 1,0 164.56,0 a 82.28,18 0 1,0 -164.56,0"></path><text x="998.08" y="-635.4" text-anchor="middle" font-family="'Times-Roman',serif" font-size="14" fill="#000000">PendingPartBSign</text></g><g class="node"><title>PartBSigned</title><path stroke="#000000" fill="none" d="M 1177.08,-550.8 m -59.71,0 a 59.71,18 0 1,0 119.42,0 a 59.71,18 0 1,0 -119.42,0"></path><text x="1177.08" y="-546.6" text-anchor="middle" font-family="'Times-Roman',serif" font-size="14" fill="#000000">PartBSigned</text></g><g class="node"><title>PartBDeclined</title><path stroke="#000000" fill="none" d="M 978.08,-550.8 m -67.77,0 a 67.77,18 0 1,0 135.54,0 a 67.77,18 0 1,0 -135.54,0"></path><text x="978.08" y="-546.6" text-anchor="middle" font-family="'Times-Roman',serif" font-size="14" fill="#000000">PartBDeclined</text></g><g class="node"><title>PreparingPartASign</title><path stroke="#000000" fill="none" d="M 1216.08,-462 m -88.62,0 a 88.62,18 0 1,0 177.24,0 a 88.62,18 0 1,0 -177.24,0"></path><text x="1216.08" y="-457.8" text-anchor="middle" font-family="'Times-Roman',serif" font-size="14" fill="#000000">PreparingPartASign</text></g><g class="node"><title>PendingPartASign</title><path stroke="#000000" fill="none" d="M 1230.08,-373.2 m -82.85,0 a 82.85,18 0 1,0 165.7,0 a 82.85,18 0 1,0 -165.7,0"></path><text x="1230.08" y="-369" text-anchor="middle" font-family="'Times-Roman',serif" font-size="14" fill="#000000">PendingPartASign</text></g><g class="node"><title>PartASigned</title><path stroke="#000000" fill="none" d="M 1230.08,-284.4 m -60.27,0 a 60.27,18 0 1,0 120.54,0 a 60.27,18 0 1,0 -120.54,0"></path><text x="1230.08" y="-280.2" text-anchor="middle" font-family="'Times-Roman',serif" font-size="14" fill="#000000">PartASigned</text></g><g class="node"><title>Finalizing</title><path stroke="#000000" fill="none" d="M 1230.08,-195.6 m -50.4,0 a 50.4,18 0 1,0 100.8,0 a 50.4,18 0 1,0 -100.8,0"></path><text x="1230.08" y="-191.4" text-anchor="middle" font-family="'Times-Roman',serif" font-size="14" fill="#000000">Finalizing</text></g><g class="node"><title>Finalized</title><path stroke="#000000" fill="none" d="M 1230.08,-106.8 m -46.95,0 a 46.95,18 0 1,0 93.9,0 a 46.95,18 0 1,0 -93.9,0"></path><text x="1230.08" y="-102.6" text-anchor="middle" font-family="'Times-Roman',serif" font-size="14" fill="#000000">Finalized</text></g><g class="node"><title>Finished</title><path stroke="#000000" fill="none" d="M 1230.08,-18 m -44.1,0 a 44.1,18 0 1,0 88.2,0 a 44.1,18 0 1,0 -88.2,0"></path><text x="1230.08" y="-13.8" text-anchor="middle" font-family="'Times-Roman',serif" font-size="14" fill="#000000">Finished</text></g><g class="relation" style="opacity: 1;"><title>start-&gt;templatePreparing</title><path stroke="#000000" fill="none" d="M 283.08,-2423.85 C 283.08,-2411.72,283.08,-2395.22,283.08,-2381.32"></path><path class="solid" stroke="#000000" fill="#000000" d="M 286.58,-2381.31 L 283.08,-2371.31,279.58,-2381.31 Z"></path><text x="298.64" y="-2393.4" text-anchor="middle" font-family="'Times-Roman',serif" font-size="14" fill="#000000"> next </text></g><g class="relation" style="opacity: 1;"><title>templatePreparing-&gt;templatePrepared</title><path stroke="#000000" fill="none" d="M 283.08,-2335.05 C 283.08,-2322.92,283.08,-2306.42,283.08,-2292.52"></path><path class="solid" stroke="#000000" fill="#000000" d="M 286.58,-2292.51 L 283.08,-2282.51,279.58,-2292.51 Z"></path><text x="332.06" y="-2304.6" text-anchor="middle" font-family="'Times-Roman',serif" font-size="14" fill="#000000"> templatePrepare </text></g><g class="relation" style="opacity: 1;"><title>templatePrepared-&gt;templatePendingAcceptanceByVendor</title><path stroke="#000000" fill="none" d="M 283.08,-2246.25 C 283.08,-2234.12,283.08,-2217.62,283.08,-2203.72"></path><path class="solid" stroke="#000000" fill="#000000" d="M 286.58,-2203.71 L 283.08,-2193.71,279.58,-2203.71 Z"></path><text x="298.64" y="-2215.8" text-anchor="middle" font-family="'Times-Roman',serif" font-size="14" fill="#000000"> next </text></g><g class="relation" style="opacity: 1;"><title>templatePendingAcceptanceByVendor-&gt;templateAcceptedByVendor</title><path stroke="#000000" fill="none" d="M 283.08,-2157.45 C 283.08,-2145.32,283.08,-2128.82,283.08,-2114.92"></path><path class="solid" stroke="#000000" fill="#000000" d="M 286.58,-2114.91 L 283.08,-2104.91,279.58,-2114.91 Z"></path><text x="346.44" y="-2127" text-anchor="middle" font-family="'Times-Roman',serif" font-size="14" fill="#000000"> partBacceptTemplate </text></g><g class="relation" style="opacity: 1;"><title>templateAcceptedByVendor-&gt;templateFixed</title><path stroke="#000000" fill="none" d="M 283.08,-2068.65 C 283.08,-2056.52,283.08,-2040.02,283.08,-2026.12"></path><path class="solid" stroke="#000000" fill="#000000" d="M 286.58,-2026.11 L 283.08,-2016.11,279.58,-2026.11 Z"></path><text x="298.64" y="-2038.2" text-anchor="middle" font-family="'Times-Roman',serif" font-size="14" fill="#000000"> next </text></g><g class="relation" style="opacity: 1;"><title>templateFixed-&gt;contractPreparing</title><path stroke="#000000" fill="none" d="M 283.08,-1979.85 C 283.08,-1967.72,283.08,-1951.22,283.08,-1937.32"></path><path class="solid" stroke="#000000" fill="#000000" d="M 286.58,-1937.31 L 283.08,-1927.31,279.58,-1937.31 Z"></path><text x="298.64" y="-1949.4" text-anchor="middle" font-family="'Times-Roman',serif" font-size="14" fill="#000000"> next </text></g><g class="relation" style="opacity: 1;"><title>contractPreparing-&gt;contractPrepared</title><path stroke="#000000" fill="none" d="M 283.08,-1891.05 C 283.08,-1878.92,283.08,-1862.42,283.08,-1848.52"></path><path class="solid" stroke="#000000" fill="#000000" d="M 286.58,-1848.51 L 283.08,-1838.51,279.58,-1848.51 Z"></path><text x="330.5" y="-1860.6" text-anchor="middle" font-family="'Times-Roman',serif" font-size="14" fill="#000000"> contractPrepare </text></g><g class="relation" style="opacity: 1;"><title>contractPrepared-&gt;PendingL1Approval</title><path stroke="#000000" fill="none" d="M 283.08,-1802.25 C 283.08,-1790.12,283.08,-1773.62,283.08,-1759.72"></path><path class="solid" stroke="#000000" fill="#000000" d="M 286.58,-1759.71 L 283.08,-1749.71,279.58,-1759.71 Z"></path><text x="298.64" y="-1771.8" text-anchor="middle" font-family="'Times-Roman',serif" font-size="14" fill="#000000"> next </text></g><g class="relation" style="opacity: 1;"><title>PendingL1Approval-&gt;level1Approved</title><path stroke="#000000" fill="none" d="M 311.88,-1714.48 C 337.05,-1700.38,373.74,-1679.83,401.09,-1664.52"></path><path class="solid" stroke="#000000" fill="#000000" d="M 402.96,-1667.48 L 409.97,-1659.54,399.53,-1661.38 Z"></path><text x="420.18" y="-1683" text-anchor="middle" font-family="'Times-Roman',serif" font-size="14" fill="#000000"> level1Approve </text></g><g class="relation" style="opacity: 1;"><title>PendingL1Approval-&gt;level1Declined</title><path stroke="#000000" fill="none" d="M 215.4,-1719.73 C 187.84,-1713.91,160.34,-1705.81,151.34,-1695.6,132.64,-1674.38,131.17,-1640.86,133.03,-1617.24"></path><path class="solid" stroke="#000000" fill="#000000" d="M 136.52,-1617.48 L 134.07,-1607.17,129.56,-1616.76 Z"></path><text x="194.46" y="-1683" text-anchor="middle" font-family="'Times-Roman',serif" font-size="14" fill="#000000"> level1Decline </text></g><g class="relation" style="opacity: 1;"><title>level1Approved-&gt;PendingL2Approval</title><path stroke="#000000" fill="none" d="M 447.88,-1624.77 C 457.71,-1607.69,472.97,-1581.18,484.27,-1561.54"></path><path class="solid" stroke="#000000" fill="#000000" d="M 487.35,-1563.2 L 489.31,-1552.79,481.29,-1559.71 Z"></path><text x="495.64" y="-1584.6" text-anchor="middle" font-family="'Times-Roman',serif" font-size="14" fill="#000000"> next </text></g><g class="relation" style="opacity: 1;"><title>level1Declined-&gt;contractPendingCorrection</title><path stroke="#000000" fill="none" d="M 133.55,-1570.77 C 130.09,-1554.1,124.77,-1528.45,120.72,-1508.96"></path><path class="solid" stroke="#000000" fill="#000000" d="M 124.14,-1508.22 L 118.68,-1499.14,117.29,-1509.64 Z"></path><text x="145.64" y="-1530.6" text-anchor="middle" font-family="'Times-Roman',serif" font-size="14" fill="#000000"> next </text></g><g class="relation" style="opacity: 1;"><title>contractPendingCorrection-&gt;contractCorrectedIssue</title><path stroke="#000000" fill="none" d="M 113.77,-1462.55 C 112.29,-1441.59,110.08,-1405.12,110.08,-1373.8,110.08,-1373.8,110.08,-1373.8,110.08,-461,110.08,-401.42,282.13,-382.66,400.27,-376.8"></path><path class="solid" stroke="#000000" fill="#000000" d="M 400.63,-380.29 L 410.46,-376.32,400.3,-373.29 Z"></path><text x="166.06" y="-921" text-anchor="middle" font-family="'Times-Roman',serif" font-size="14" fill="#000000"> contractCorrection </text></g><g class="relation" style="opacity: 1;"><title>contractCorrectedIssue-&gt;PendingL1Approval</title><path stroke="#000000" fill="none" d="M 413.27,-378.42 C 377.2,-383.05,336.78,-392.03,303.08,-409.2,273.73,-424.15,250.08,-428.06,250.08,-461,250.08,-1643.8,250.08,-1643.8,250.08,-1643.8,250.08,-1665.23,258.98,-1687.8,267.53,-1704.56"></path><path class="solid" stroke="#000000" fill="#000000" d="M 264.64,-1706.56 L 272.46,-1713.7,270.8,-1703.24 Z"></path><path stroke="#000000" fill="none" d="M 419.27,-381.26 C 369.3,-390.66,317.08,-412.16,317.08,-461,317.08,-1643.8,317.08,-1643.8,317.08,-1643.8,317.08,-1665.18,308.03,-1687.6,299.27,-1704.3"></path><path class="solid" stroke="#000000" fill="#000000" d="M 296,-1702.98 L 294.22,-1713.42,302.13,-1706.37 Z"></path><text x="265.64" y="-1029" text-anchor="middle" font-family="'Times-Roman',serif" font-size="14" fill="#000000"> next </text><text x="332.64" y="-1029" text-anchor="middle" font-family="'Times-Roman',serif" font-size="14" fill="#000000"> next </text></g><g class="relation" style="opacity: 1;"><title>contractCorrectedIssue-&gt;PendingL3Approval</title><path stroke="#000000" fill="none" d="M 443.77,-386.84 C 404.9,-398.58,363.08,-420.6,363.08,-461,363.08,-783.4,363.08,-783.4,363.08,-783.4,363.08,-913.84,376.08,-946.16,376.08,-1076.6,376.08,-1231,376.08,-1231,376.08,-1231,376.08,-1264.87,407.6,-1286.69,438.73,-1299.98"></path><path class="solid" stroke="#000000" fill="#000000" d="M 437.76,-1303.37 L 448.35,-1303.84,440.37,-1296.87 Z"></path><path stroke="#000000" fill="none" d="M 480.12,-390.5 C 457.57,-405.56,430.08,-430.23,430.08,-461,430.08,-1231,430.08,-1231,430.08,-1231,430.08,-1256.54,448.62,-1278.92,466.48,-1294.56"></path><path class="solid" stroke="#000000" fill="#000000" d="M 464.63,-1297.58 L 474.56,-1301.26,469.09,-1292.18 Z"></path><path stroke="#000000" fill="none" d="M 505.29,-391.4 C 501.77,-408.84,497.08,-436.66,497.08,-461,497.08,-1231,497.08,-1231,497.08,-1231,497.08,-1250.78,497.61,-1273.1,498.12,-1290.15"></path><path class="solid" stroke="#000000" fill="#000000" d="M 494.64,-1290.63 L 498.45,-1300.51,501.63,-1290.4 Z"></path><path stroke="#000000" fill="none" d="M 512.61,-391.28 C 524.75,-451.67,564.08,-660.82,564.08,-835.4,564.08,-1231,564.08,-1231,564.08,-1231,564.08,-1256.14,546.4,-1278.67,529.47,-1294.48"></path><path class="solid" stroke="#000000" fill="#000000" d="M 526.99,-1292 L 521.82,-1301.25,531.63,-1297.24 Z"></path><text x="380.64" y="-832.2" text-anchor="middle" font-family="'Times-Roman',serif" font-size="14" fill="#000000"> next </text><text x="445.64" y="-832.2" text-anchor="middle" font-family="'Times-Roman',serif" font-size="14" fill="#000000"> next </text><text x="512.64" y="-832.2" text-anchor="middle" font-family="'Times-Roman',serif" font-size="14" fill="#000000"> next </text><text x="579.64" y="-832.2" text-anchor="middle" font-family="'Times-Roman',serif" font-size="14" fill="#000000"> next </text></g><g class="relation" style="opacity: 1;"><title>PendingL2Approval-&gt;level2Approved</title><path stroke="#000000" fill="none" d="M 499.08,-1516.77 C 499.08,-1500.18,499.08,-1474.68,499.08,-1455.23"></path><path class="solid" stroke="#000000" fill="#000000" d="M 502.58,-1455.14 L 499.08,-1445.14,495.58,-1455.14 Z"></path><text x="544.18" y="-1476.6" text-anchor="middle" font-family="'Times-Roman',serif" font-size="14" fill="#000000"> level2Approve </text></g><g class="relation" style="opacity: 1;"><title>PendingL2Approval-&gt;level2Declined</title><path stroke="#000000" fill="none" d="M 559.27,-1521.41 C 571.94,-1516.28,584.15,-1509.04,593.08,-1498.8,616.7,-1471.73,621.66,-1429.04,622.11,-1401.23"></path><path class="solid" stroke="#000000" fill="#000000" d="M 625.61,-1401.01 L 622.08,-1391.01,618.61,-1401.02 Z"></path><text x="655.46" y="-1476.6" text-anchor="middle" font-family="'Times-Roman',serif" font-size="14" fill="#000000"> level2Decline </text></g><g class="relation" style="opacity: 1;"><title>level2Approved-&gt;PendingL3Approval</title><path stroke="#000000" fill="none" d="M 499.08,-1408.77 C 499.08,-1392.18,499.08,-1366.68,499.08,-1347.23"></path><path class="solid" stroke="#000000" fill="#000000" d="M 502.58,-1347.14 L 499.08,-1337.14,495.58,-1347.14 Z"></path><text x="514.64" y="-1368.6" text-anchor="middle" font-family="'Times-Roman',serif" font-size="14" fill="#000000"> next </text></g><g class="relation" style="opacity: 1;"><title>level2Declined-&gt;contractPendingCorrectionIssue</title><path stroke="#000000" fill="none" d="M 621.65,-1354.74 C 622.24,-1335.47,623.08,-1303.19,623.08,-1275.4,623.08,-1275.4,623.08,-1275.4,623.08,-549.8,623.08,-508.98,659.43,-487.25,700.58,-475.72"></path><path class="solid" stroke="#000000" fill="#000000" d="M 701.47,-479.1 L 710.27,-473.2,699.71,-472.33 Z"></path><text x="638.64" y="-921" text-anchor="middle" font-family="'Times-Roman',serif" font-size="14" fill="#000000"> next </text></g><g class="relation" style="opacity: 1;"><title>contractPendingCorrectionIssue-&gt;contractCorrectedIssue</title><path stroke="#000000" fill="none" d="M 698.92,-453.05 C 642.15,-447.65,580.97,-439.05,556.13,-426,544.28,-419.78,533.92,-409.32,525.96,-399.42"></path><path class="solid" stroke="#000000" fill="#000000" d="M 528.68,-397.21 L 519.86,-391.35,523.09,-401.43 Z"></path><path stroke="#000000" fill="none" d="M 747.35,-446.47 C 728.62,-441.26,708.66,-434.5,691.13,-426,679.73,-420.47,679.64,-414.41,668.08,-409.2,645.87,-399.19,620.6,-391.96,596.83,-386.76"></path><path class="solid" stroke="#000000" fill="#000000" d="M 597.26,-383.27 L 586.76,-384.66,595.83,-390.13 Z"></path><path stroke="#000000" fill="none" d="M 816.47,-443.52 C 815.72,-432.05,812.69,-417.65,803.08,-409.2,776.14,-385.48,691.07,-377.23,619.33,-374.62"></path><path class="solid" stroke="#000000" fill="#000000" d="M 619.41,-371.12 L 609.3,-374.29,619.18,-378.12 Z"></path><path stroke="#000000" fill="none" d="M 898.26,-447.59 C 926.28,-439.59,946.79,-427.36,930.08,-409.2,909.33,-386.65,736.24,-378.63,618.57,-375.77"></path><path class="solid" stroke="#000000" fill="#000000" d="M 618.5,-372.27 L 608.42,-375.54,618.34,-379.27 Z"></path><path stroke="#000000" fill="none" d="M 944.94,-456.6 C 991.95,-452.06,1037.27,-443.17,1052.08,-426,1056.96,-420.35,1057.19,-414.65,1052.08,-409.2,1023.19,-378.38,769.53,-373.54,619.34,-373.42"></path><path class="solid" stroke="#000000" fill="#000000" d="M 619.15,-369.92 L 609.15,-373.42,619.15,-376.92 Z"></path><text x="613.06" y="-413.4" text-anchor="middle" font-family="'Times-Roman',serif" font-size="14" fill="#000000"> contractCorrection </text><text x="748.06" y="-413.4" text-anchor="middle" font-family="'Times-Roman',serif" font-size="14" fill="#000000"> contractCorrection </text><text x="870.06" y="-413.4" text-anchor="middle" font-family="'Times-Roman',serif" font-size="14" fill="#000000"> contractCorrection </text><text x="992.06" y="-413.4" text-anchor="middle" font-family="'Times-Roman',serif" font-size="14" fill="#000000"> contractCorrection </text><text x="1112.06" y="-413.4" text-anchor="middle" font-family="'Times-Roman',serif" font-size="14" fill="#000000"> contractCorrection </text></g><g class="relation" style="opacity: 1;"><title>PendingL3Approval-&gt;level3Approved</title><path stroke="#000000" fill="none" d="M 584,-1312.73 C 647.4,-1307.75,727.9,-1298.56,757.08,-1282.8,768.6,-1276.58,778.51,-1266.17,786.08,-1256.3"></path><path class="solid" stroke="#000000" fill="#000000" d="M 789.13,-1258.05 L 792.12,-1247.89,783.44,-1253.97 Z"></path><text x="823.18" y="-1270.2" text-anchor="middle" font-family="'Times-Roman',serif" font-size="14" fill="#000000"> level3Approve </text></g><g class="relation" style="opacity: 1;"><title>PendingL3Approval-&gt;level3Declined</title><path stroke="#000000" fill="none" d="M 539.12,-1302.55 C 551.94,-1297.02,565.95,-1290.27,578.08,-1282.8,617.25,-1258.68,657.47,-1223.77,682.36,-1200.74"></path><path class="solid" stroke="#000000" fill="#000000" d="M 684.97,-1203.09 L 689.88,-1193.71,680.19,-1197.98 Z"></path><text x="645.46" y="-1270.2" text-anchor="middle" font-family="'Times-Roman',serif" font-size="14" fill="#000000"> level3Decline </text></g><g class="relation" style="opacity: 1;"><title>level3Approved-&gt;PendingL4Approval</title><path stroke="#000000" fill="none" d="M 805.78,-1211.97 C 809.42,-1195.2,815.03,-1169.34,819.27,-1149.81"></path><path class="solid" stroke="#000000" fill="#000000" d="M 822.7,-1150.5 L 821.4,-1139.99,815.86,-1149.02 Z"></path><text x="832.64" y="-1171.8" text-anchor="middle" font-family="'Times-Roman',serif" font-size="14" fill="#000000"> next </text></g><g class="relation" style="opacity: 1;"><title>level3Declined-&gt;contractPendingCorrectionIssue</title><path stroke="#000000" fill="none" d="M 707.08,-1157.93 C 707.08,-1138.67,707.08,-1106.38,707.08,-1078.6,707.08,-1078.6,707.08,-1078.6,707.08,-549.8,707.08,-519.05,733.96,-497.43,761.03,-483.46"></path><path class="solid" stroke="#000000" fill="#000000" d="M 762.71,-486.54 L 770.17,-479.02,759.65,-480.24 Z"></path><text x="722.64" y="-832.2" text-anchor="middle" font-family="'Times-Roman',serif" font-size="14" fill="#000000"> next </text></g><g class="relation" style="opacity: 1;"><title>PendingL4Approval-&gt;level4Approved</title><path stroke="#000000" fill="none" d="M 867.66,-1105.94 C 878.17,-1100.79,888.78,-1094.2,897.08,-1086,904.24,-1078.94,909.76,-1069.5,913.85,-1060.62"></path><path class="solid" stroke="#000000" fill="#000000" d="M 917.1,-1061.91 L 917.72,-1051.34,910.64,-1059.22 Z"></path><text x="955.18" y="-1073.4" text-anchor="middle" font-family="'Times-Roman',serif" font-size="14" fill="#000000"> level4Approve </text></g><g class="relation" style="opacity: 1;"><title>PendingL4Approval-&gt;level4Declined</title><path stroke="#000000" fill="none" d="M 815.18,-1104.1 C 812.42,-1098.52,809.78,-1092.17,808.34,-1086,802.24,-1059.83,802.7,-1029.02,804.22,-1007.42"></path><path class="solid" stroke="#000000" fill="#000000" d="M 807.72,-1007.58 L 805.05,-997.33,800.74,-1007.01 Z"></path><text x="851.46" y="-1073.4" text-anchor="middle" font-family="'Times-Roman',serif" font-size="14" fill="#000000"> level4Decline </text></g><g class="relation" style="opacity: 1;"><title>level4Approved-&gt;PendingL5Approval</title><path stroke="#000000" fill="none" d="M 923.24,-1015.17 C 923.4,-998.58,923.64,-973.08,923.83,-953.63"></path><path class="solid" stroke="#000000" fill="#000000" d="M 927.33,-953.57 L 923.92,-943.54,920.33,-953.51 Z"></path><text x="939.64" y="-975" text-anchor="middle" font-family="'Times-Roman',serif" font-size="14" fill="#000000"> next </text></g><g class="relation" style="opacity: 1;"><title>level4Declined-&gt;contractPendingCorrectionIssue</title><path stroke="#000000" fill="none" d="M 806.8,-961.14 C 806.5,-941.87,806.08,-909.58,806.08,-881.8,806.08,-881.8,806.08,-881.8,806.08,-549.8,806.08,-529.89,808.71,-507.58,811.27,-490.56"></path><path class="solid" stroke="#000000" fill="#000000" d="M 814.8,-490.65 L 812.92,-480.22,807.89,-489.55 Z"></path><text x="821.64" y="-724.2" text-anchor="middle" font-family="'Times-Roman',serif" font-size="14" fill="#000000"> next </text></g><g class="relation" style="opacity: 1;"><title>PendingL5Approval-&gt;level5Approved</title><path stroke="#000000" fill="none" d="M 954.27,-908.13 C 962.12,-902.88,970.06,-896.5,976.08,-889.2,982.07,-881.94,986.67,-872.81,990.08,-864.25"></path><path class="solid" stroke="#000000" fill="#000000" d="M 993.45,-865.19 L 993.54,-854.6,986.87,-862.83 Z"></path><text x="1032.18" y="-876.6" text-anchor="middle" font-family="'Times-Roman',serif" font-size="14" fill="#000000"> level5Approve </text></g><g class="relation" style="opacity: 1;"><title>PendingL5Approval-&gt;level5Declined</title><path stroke="#000000" fill="none" d="M 900.94,-907.61 C 895.45,-902.4,890.33,-896.16,887.34,-889.2,876.65,-864.24,879.21,-832.83,883.3,-810.74"></path><path class="solid" stroke="#000000" fill="#000000" d="M 886.77,-811.22 L 885.37,-800.72,879.92,-809.8 Z"></path><text x="930.46" y="-876.6" text-anchor="middle" font-family="'Times-Roman',serif" font-size="14" fill="#000000"> level5Decline </text></g><g class="relation" style="opacity: 1;"><title>level5Approved-&gt;PreparingPartBSign</title><path stroke="#000000" fill="none" d="M 998.08,-818.37 C 998.08,-801.78,998.08,-776.28,998.08,-756.83"></path><path class="solid" stroke="#000000" fill="#000000" d="M 1001.58,-756.74 L 998.08,-746.74,994.58,-756.74 Z"></path><text x="1013.64" y="-778.2" text-anchor="middle" font-family="'Times-Roman',serif" font-size="14" fill="#000000"> next </text></g><g class="relation" style="opacity: 1;"><title>level5Declined-&gt;contractPendingCorrectionIssue</title><path stroke="#000000" fill="none" d="M 883.14,-764.3 C 876.05,-745.28,866.08,-713.46,866.08,-685,866.08,-685,866.08,-685,866.08,-549.8,866.08,-526.7,852.62,-504.2,839.67,-487.9"></path><path class="solid" stroke="#000000" fill="#000000" d="M 842.12,-485.38 L 833.01,-479.97,836.76,-489.88 Z"></path><text x="881.64" y="-635.4" text-anchor="middle" font-family="'Times-Roman',serif" font-size="14" fill="#000000"> next </text></g><g class="relation" style="opacity: 1;"><title>PreparingPartBSign-&gt;PendingPartBSign</title><path stroke="#000000" fill="none" d="M 998.08,-710.25 C 998.08,-698.12,998.08,-681.62,998.08,-667.72"></path><path class="solid" stroke="#000000" fill="#000000" d="M 1001.58,-667.71 L 998.08,-657.71,994.58,-667.71 Z"></path><text x="1051.35" y="-679.8" text-anchor="middle" font-family="'Times-Roman',serif" font-size="14" fill="#000000"> preparePartBSign </text></g><g class="relation" style="opacity: 1;"><title>PendingPartBSign-&gt;PartBSigned</title><path stroke="#000000" fill="none" d="M 1045.1,-624.77 C 1062.16,-619.08,1081.34,-611.86,1098.08,-603.6,1115.13,-595.18,1132.94,-583.77,1147.33,-573.79"></path><path class="solid" stroke="#000000" fill="#000000" d="M 1149.65,-576.44 L 1155.81,-567.81,1145.62,-570.72 Z"></path><text x="1158.97" y="-591" text-anchor="middle" font-family="'Times-Roman',serif" font-size="14" fill="#000000"> partBSign </text></g><g class="relation" style="opacity: 1;"><title>PendingPartBSign-&gt;PartBDeclined</title><path stroke="#000000" fill="none" d="M 994.13,-621.45 C 991.34,-609.32,987.54,-592.82,984.33,-578.92"></path><path class="solid" stroke="#000000" fill="#000000" d="M 987.68,-577.87 L 982.03,-568.91,980.86,-579.44 Z"></path><text x="1043.74" y="-591" text-anchor="middle" font-family="'Times-Roman',serif" font-size="14" fill="#000000"> partBSignDecline </text></g><g class="relation" style="opacity: 1;"><title>PartBSigned-&gt;PreparingPartASign</title><path stroke="#000000" fill="none" d="M 1184.79,-532.65 C 1190.34,-520.29,1197.95,-503.37,1204.27,-489.3"></path><path class="solid" stroke="#000000" fill="#000000" d="M 1207.49,-490.67 L 1208.4,-480.11,1201.1,-487.8 Z"></path><text x="1214.64" y="-502.2" text-anchor="middle" font-family="'Times-Roman',serif" font-size="14" fill="#000000"> next </text></g><g class="relation" style="opacity: 1;"><title>PartBDeclined-&gt;contractPendingCorrectionIssue</title><path stroke="#000000" fill="none" d="M 949.12,-534.28 C 923.17,-520.38,884.86,-499.85,856.01,-484.39"></path><path class="solid" stroke="#000000" fill="#000000" d="M 857.47,-481.2 L 847,-479.57,854.16,-487.37 Z"></path><text x="927.64" y="-502.2" text-anchor="middle" font-family="'Times-Roman',serif" font-size="14" fill="#000000"> next </text></g><g class="relation" style="opacity: 1;"><title>PreparingPartASign-&gt;PendingPartASign</title><path stroke="#000000" fill="none" d="M 1218.85,-443.85 C 1220.81,-431.72,1223.47,-415.22,1225.71,-401.32"></path><path class="solid" stroke="#000000" fill="#000000" d="M 1229.19,-401.74 L 1227.32,-391.31,1222.28,-400.63 Z"></path><text x="1277.73" y="-413.4" text-anchor="middle" font-family="'Times-Roman',serif" font-size="14" fill="#000000"> preparePartASign </text></g><g class="relation" style="opacity: 1;"><title>PendingPartASign-&gt;PartASigned</title><path stroke="#000000" fill="none" d="M 1230.08,-355.05 C 1230.08,-342.92,1230.08,-326.42,1230.08,-312.52"></path><path class="solid" stroke="#000000" fill="#000000" d="M 1233.58,-312.51 L 1230.08,-302.51,1226.58,-312.51 Z"></path><text x="1262.36" y="-324.6" text-anchor="middle" font-family="'Times-Roman',serif" font-size="14" fill="#000000"> partASign </text></g><g class="relation" style="opacity: 1;"><title>PartASigned-&gt;Finalizing</title><path stroke="#000000" fill="none" d="M 1230.08,-266.25 C 1230.08,-254.12,1230.08,-237.62,1230.08,-223.72"></path><path class="solid" stroke="#000000" fill="#000000" d="M 1233.58,-223.71 L 1230.08,-213.71,1226.58,-223.71 Z"></path><text x="1245.64" y="-235.8" text-anchor="middle" font-family="'Times-Roman',serif" font-size="14" fill="#000000"> next </text></g><g class="relation" style="opacity: 1;"><title>Finalizing-&gt;Finalized</title><path stroke="#000000" fill="none" d="M 1230.08,-177.45 C 1230.08,-165.32,1230.08,-148.82,1230.08,-134.92"></path><path class="solid" stroke="#000000" fill="#000000" d="M 1233.58,-134.91 L 1230.08,-124.91,1226.58,-134.91 Z"></path><text x="1254.57" y="-147" text-anchor="middle" font-family="'Times-Roman',serif" font-size="14" fill="#000000"> finalize </text></g><g class="relation" style="opacity: 1;"><title>Finalized-&gt;Finished</title><path stroke="#000000" fill="none" d="M 1230.08,-88.65 C 1230.08,-76.52,1230.08,-60.02,1230.08,-46.12"></path><path class="solid" stroke="#000000" fill="#000000" d="M 1233.58,-46.11 L 1230.08,-36.11,1226.58,-46.11 Z"></path><text x="1245.64" y="-58.2" text-anchor="middle" font-family="'Times-Roman',serif" font-size="14" fill="#000000"> next </text></g></g></g></svg>