<svg version="1.1" xmlns="http://www.w3.org/2000/svg" width="1095.45pt" height="2352.8pt" viewBox="0 0 1095.45 2352.8"><style type="text/css">.dashed {stroke-dasharray: 5,5} .dotted {stroke-dasharray: 1,5} .overlay {fill: none; pointer-events: all}</style><g><g transform="translate(4, 2348.800048828125) scale(1,1)"><polygon stroke="#fffffe" stroke-opacity="0" fill="#ffffff" points="-4,4 -4,-2348.8 1091.45,-2348.8 1091.45,4"></polygon><g class="node"><title>start</title><path stroke="#000000" fill="none" d="M 926.25,-2326.8 m -27.82,0 a 27.82,18 0 1,0 55.64,0 a 27.82,18 0 1,0 -55.64,0"></path><text x="926.25" y="-2322.6" text-anchor="middle" font-family="'Times-Roman',serif" font-size="14" fill="#000000">start</text></g><g class="node"><title>templatePreparing</title><path stroke="#000000" fill="none" d="M 926.25,-2238 m -81.66,0 a 81.66,18 0 1,0 163.32,0 a 81.66,18 0 1,0 -163.32,0"></path><text x="926.25" y="-2233.8" text-anchor="middle" font-family="'Times-Roman',serif" font-size="14" fill="#000000">templatePreparing</text></g><g class="relation" style="opacity: 1;"><title>start-&gt;templatePreparing</title><path stroke="#000000" fill="none" d="M 926.25,-2308.65 C 926.25,-2296.52,926.25,-2280.02,926.25,-2266.12"></path><path class="solid" stroke="#000000" fill="#000000" d="M 929.75,-2266.11 L 926.25,-2256.11,922.75,-2266.11 Z"></path><text x="941.8" y="-2278.2" text-anchor="middle" font-family="'Times-Roman',serif" font-size="14" fill="#000000"> next </text></g><g class="node"><title>templatePrepared</title><path stroke="#000000" fill="none" d="M 926.25,-2149.2 m -78.71,0 a 78.71,18 0 1,0 157.42,0 a 78.71,18 0 1,0 -157.42,0"></path><text x="926.25" y="-2145" text-anchor="middle" font-family="'Times-Roman',serif" font-size="14" fill="#000000">templatePrepared</text></g><g class="relation" style="opacity: 1;"><title>templatePreparing-&gt;templatePrepared</title><path stroke="#000000" fill="none" d="M 926.25,-2219.85 C 926.25,-2207.72,926.25,-2191.22,926.25,-2177.32"></path><path class="solid" stroke="#000000" fill="#000000" d="M 929.75,-2177.31 L 926.25,-2167.31,922.75,-2177.31 Z"></path><text x="975.23" y="-2189.4" text-anchor="middle" font-family="'Times-Roman',serif" font-size="14" fill="#000000"> templatePrepare </text></g><g class="node"><title>templatePendingAcceptanceByVendor</title><path stroke="#000000" fill="none" d="M 926.25,-2060.4 m -161.4,0 a 161.4,18 0 1,0 322.8,0 a 161.4,18 0 1,0 -322.8,0"></path><text x="926.25" y="-2056.2" text-anchor="middle" font-family="'Times-Roman',serif" font-size="14" fill="#000000">templatePendingAcceptanceByVendor</text></g><g class="relation" style="opacity: 1;"><title>templatePrepared-&gt;templatePendingAcceptanceByVendor</title><path stroke="#000000" fill="none" d="M 926.25,-2131.05 C 926.25,-2118.92,926.25,-2102.42,926.25,-2088.52"></path><path class="solid" stroke="#000000" fill="#000000" d="M 929.75,-2088.51 L 926.25,-2078.51,922.75,-2088.51 Z"></path><text x="941.8" y="-2100.6" text-anchor="middle" font-family="'Times-Roman',serif" font-size="14" fill="#000000"> next </text></g><g class="node"><title>templateAcceptedByVendor</title><path stroke="#000000" fill="none" d="M 926.25,-1971.6 m -120.95,0 a 120.95,18 0 1,0 241.9,0 a 120.95,18 0 1,0 -241.9,0"></path><text x="926.25" y="-1967.4" text-anchor="middle" font-family="'Times-Roman',serif" font-size="14" fill="#000000">templateAcceptedByVendor</text></g><g class="relation" style="opacity: 1;"><title>templatePendingAcceptanceByVendor-&gt;templateAcceptedByVendor</title><path stroke="#000000" fill="none" d="M 926.25,-2042.25 C 926.25,-2030.12,926.25,-2013.62,926.25,-1999.72"></path><path class="solid" stroke="#000000" fill="#000000" d="M 929.75,-1999.71 L 926.25,-1989.71,922.75,-1999.71 Z"></path><text x="989.61" y="-2011.8" text-anchor="middle" font-family="'Times-Roman',serif" font-size="14" fill="#000000"> partBacceptTemplate </text></g><g class="node"><title>templateFixed</title><path stroke="#000000" fill="none" d="M 926.25,-1882.8 m -66.07,0 a 66.07,18 0 1,0 132.14,0 a 66.07,18 0 1,0 -132.14,0"></path><text x="926.25" y="-1878.6" text-anchor="middle" font-family="'Times-Roman',serif" font-size="14" fill="#000000">templateFixed</text></g><g class="relation" style="opacity: 1;"><title>templateAcceptedByVendor-&gt;templateFixed</title><path stroke="#000000" fill="none" d="M 926.25,-1953.45 C 926.25,-1941.32,926.25,-1924.82,926.25,-1910.92"></path><path class="solid" stroke="#000000" fill="#000000" d="M 929.75,-1910.91 L 926.25,-1900.91,922.75,-1910.91 Z"></path><text x="941.8" y="-1923" text-anchor="middle" font-family="'Times-Roman',serif" font-size="14" fill="#000000"> next </text></g><g class="node"><title>contractPreparing</title><path stroke="#000000" fill="none" d="M 926.25,-1794 m -79.85,0 a 79.85,18 0 1,0 159.7,0 a 79.85,18 0 1,0 -159.7,0"></path><text x="926.25" y="-1789.8" text-anchor="middle" font-family="'Times-Roman',serif" font-size="14" fill="#000000">contractPreparing</text></g><g class="relation" style="opacity: 1;"><title>templateFixed-&gt;contractPreparing</title><path stroke="#000000" fill="none" d="M 926.25,-1864.65 C 926.25,-1852.52,926.25,-1836.02,926.25,-1822.12"></path><path class="solid" stroke="#000000" fill="#000000" d="M 929.75,-1822.11 L 926.25,-1812.11,922.75,-1822.11 Z"></path><text x="941.8" y="-1834.2" text-anchor="middle" font-family="'Times-Roman',serif" font-size="14" fill="#000000"> next </text></g><g class="node"><title>contractPrepared</title><path stroke="#000000" fill="none" d="M 926.25,-1705.2 m -76.4,0 a 76.4,18 0 1,0 152.8,0 a 76.4,18 0 1,0 -152.8,0"></path><text x="926.25" y="-1701" text-anchor="middle" font-family="'Times-Roman',serif" font-size="14" fill="#000000">contractPrepared</text></g><g class="relation" style="opacity: 1;"><title>contractPreparing-&gt;contractPrepared</title><path stroke="#000000" fill="none" d="M 926.25,-1775.85 C 926.25,-1763.72,926.25,-1747.22,926.25,-1733.32"></path><path class="solid" stroke="#000000" fill="#000000" d="M 929.75,-1733.31 L 926.25,-1723.31,922.75,-1733.31 Z"></path><text x="973.67" y="-1745.4" text-anchor="middle" font-family="'Times-Roman',serif" font-size="14" fill="#000000"> contractPrepare </text></g><g class="node"><title>PendingL1Approval</title><path stroke="#000000" fill="none" d="M 926.25,-1616.4 m -89.77,0 a 89.77,18 0 1,0 179.54,0 a 89.77,18 0 1,0 -179.54,0"></path><text x="926.25" y="-1612.2" text-anchor="middle" font-family="'Times-Roman',serif" font-size="14" fill="#000000">PendingL1Approval</text></g><g class="relation" style="opacity: 1;"><title>contractPrepared-&gt;PendingL1Approval</title><path stroke="#000000" fill="none" d="M 926.25,-1687.05 C 926.25,-1674.92,926.25,-1658.42,926.25,-1644.52"></path><path class="solid" stroke="#000000" fill="#000000" d="M 929.75,-1644.51 L 926.25,-1634.51,922.75,-1644.51 Z"></path><text x="941.8" y="-1656.6" text-anchor="middle" font-family="'Times-Roman',serif" font-size="14" fill="#000000"> next </text></g><g class="node"><title>level1Approved</title><path stroke="#000000" fill="none" d="M 670.25,-1527.6 m -73.5,0 a 73.5,18 0 1,0 147,0 a 73.5,18 0 1,0 -147,0"></path><text x="670.25" y="-1523.4" text-anchor="middle" font-family="'Times-Roman',serif" font-size="14" fill="#000000">level1Approved</text></g><g class="relation" style="opacity: 1;"><title>PendingL1Approval-&gt;level1Approved</title><path stroke="#000000" fill="none" d="M 865.33,-1603.02 C 839.9,-1597.19,810.23,-1589.49,784.06,-1580.4,758.69,-1571.59,731.27,-1559.2,709.7,-1548.75"></path><path class="solid" stroke="#000000" fill="#000000" d="M 711.05,-1545.51 L 700.53,-1544.25,707.97,-1551.8 Z"></path><text x="829.35" y="-1567.8" text-anchor="middle" font-family="'Times-Roman',serif" font-size="14" fill="#000000"> level1Approve </text></g><g class="node"><title>level1Declined</title><path stroke="#000000" fill="none" d="M 861.25,-1527.6 m -69.48,0 a 69.48,18 0 1,0 138.96,0 a 69.48,18 0 1,0 -138.96,0"></path><text x="861.25" y="-1523.4" text-anchor="middle" font-family="'Times-Roman',serif" font-size="14" fill="#000000">level1Declined</text></g><g class="relation" style="opacity: 1;"><title>PendingL1Approval-&gt;level1Declined</title><path stroke="#000000" fill="none" d="M 905.78,-1598.75 C 899.79,-1593.28,893.51,-1586.93,888.51,-1580.4,882.58,-1572.66,877.27,-1563.45,872.94,-1554.96"></path><path class="solid" stroke="#000000" fill="#000000" d="M 876.01,-1553.26 L 868.5,-1545.79,869.71,-1556.32 Z"></path><text x="931.62" y="-1567.8" text-anchor="middle" font-family="'Times-Roman',serif" font-size="14" fill="#000000"> level1Decline </text></g><g class="node"><title>PendingL2Approval</title><path stroke="#000000" fill="none" d="M 621.25,-1438.8 m -89.77,0 a 89.77,18 0 1,0 179.54,0 a 89.77,18 0 1,0 -179.54,0"></path><text x="621.25" y="-1434.6" text-anchor="middle" font-family="'Times-Roman',serif" font-size="14" fill="#000000">PendingL2Approval</text></g><g class="relation" style="opacity: 1;"><title>level1Approved-&gt;PendingL2Approval</title><path stroke="#000000" fill="none" d="M 660.57,-1509.45 C 653.52,-1496.97,643.86,-1479.84,635.87,-1465.7"></path><path class="solid" stroke="#000000" fill="#000000" d="M 638.87,-1463.9 L 630.91,-1456.91,632.78,-1467.34 Z"></path><text x="665.8" y="-1479" text-anchor="middle" font-family="'Times-Roman',serif" font-size="14" fill="#000000"> next </text></g><g class="node"><title>contractPendingCorrection</title><path stroke="#000000" fill="none" d="M 844.25,-1438.8 m -115.17,0 a 115.17,18 0 1,0 230.34,0 a 115.17,18 0 1,0 -230.34,0"></path><text x="844.25" y="-1434.6" text-anchor="middle" font-family="'Times-Roman',serif" font-size="14" fill="#000000">contractPendingCorrection</text></g><g class="relation" style="opacity: 1;"><title>level1Declined-&gt;contractPendingCorrection</title><path stroke="#000000" fill="none" d="M 857.89,-1509.45 C 855.52,-1497.32,852.28,-1480.82,849.56,-1466.92"></path><path class="solid" stroke="#000000" fill="#000000" d="M 852.96,-1466.05 L 847.6,-1456.91,846.09,-1467.4 Z"></path><text x="870.8" y="-1479" text-anchor="middle" font-family="'Times-Roman',serif" font-size="14" fill="#000000"> next </text></g><g class="node"><title>contractCorrectedL1Issue</title><path stroke="#000000" fill="none" d="M 894.25,-1350 m -110.55,0 a 110.55,18 0 1,0 221.1,0 a 110.55,18 0 1,0 -221.1,0"></path><text x="894.25" y="-1345.8" text-anchor="middle" font-family="'Times-Roman',serif" font-size="14" fill="#000000">contractCorrectedL1Issue</text></g><g class="relation" style="opacity: 1;"><title>contractPendingCorrection-&gt;contractCorrectedL1Issue</title><path stroke="#000000" fill="none" d="M 841.05,-1420.5 C 839.96,-1409.94,840.18,-1396.49,845.74,-1386,848.08,-1381.59,851.25,-1377.6,854.86,-1374.03"></path><path class="solid" stroke="#000000" fill="#000000" d="M 857.43,-1376.44 L 862.76,-1367.29,852.88,-1371.12 Z"></path><text x="910" y="-1390.2" text-anchor="middle" font-family="'Times-Roman',serif" font-size="14" fill="#000000"> contractCorrectionL1 </text></g><g class="relation" style="opacity: 1;"><title>contractCorrectedL1Issue-&gt;PendingL1Approval</title><path stroke="#000000" fill="none" d="M 949.69,-1365.64 C 959.02,-1370.59,967.52,-1377.2,973.25,-1386,985.03,-1404.1,982.94,-1561.1,973.25,-1580.4,971.03,-1584.83,967.95,-1588.84,964.42,-1592.43"></path><path class="solid" stroke="#000000" fill="#000000" d="M 961.9,-1589.98 L 956.68,-1599.21,966.51,-1595.25 Z"></path><text x="997.8" y="-1479" text-anchor="middle" font-family="'Times-Roman',serif" font-size="14" fill="#000000"> next </text></g><g class="node"><title>level2Approved</title><path stroke="#000000" fill="none" d="M 535.25,-1350 m -73.5,0 a 73.5,18 0 1,0 147,0 a 73.5,18 0 1,0 -147,0"></path><text x="535.25" y="-1345.8" text-anchor="middle" font-family="'Times-Roman',serif" font-size="14" fill="#000000">level2Approved</text></g><g class="relation" style="opacity: 1;"><title>PendingL2Approval-&gt;level2Approved</title><path stroke="#000000" fill="none" d="M 583.95,-1422.35 C 574.63,-1417.18,565.24,-1410.67,558.06,-1402.8,551.51,-1395.63,546.62,-1386.28,543.08,-1377.49"></path><path class="solid" stroke="#000000" fill="#000000" d="M 546.33,-1376.19 L 539.65,-1367.97,539.75,-1378.56 Z"></path><text x="603.35" y="-1390.2" text-anchor="middle" font-family="'Times-Roman',serif" font-size="14" fill="#000000"> level2Approve </text></g><g class="node"><title>level2Declined</title><path stroke="#000000" fill="none" d="M 696.25,-1350 m -69.48,0 a 69.48,18 0 1,0 138.96,0 a 69.48,18 0 1,0 -138.96,0"></path><text x="696.25" y="-1345.8" text-anchor="middle" font-family="'Times-Roman',serif" font-size="14" fill="#000000">level2Declined</text></g><g class="relation" style="opacity: 1;"><title>PendingL2Approval-&gt;level2Declined</title><path stroke="#000000" fill="none" d="M 636.07,-1420.65 C 647.23,-1407.73,662.7,-1389.83,675.15,-1375.42"></path><path class="solid" stroke="#000000" fill="#000000" d="M 677.83,-1377.67 L 681.72,-1367.82,672.53,-1373.1 Z"></path><text x="708.62" y="-1390.2" text-anchor="middle" font-family="'Times-Roman',serif" font-size="14" fill="#000000"> level2Decline </text></g><g class="node"><title>PendingL3Approval</title><path stroke="#000000" fill="none" d="M 535.25,-1261.2 m -89.77,0 a 89.77,18 0 1,0 179.54,0 a 89.77,18 0 1,0 -179.54,0"></path><text x="535.25" y="-1257" text-anchor="middle" font-family="'Times-Roman',serif" font-size="14" fill="#000000">PendingL3Approval</text></g><g class="relation" style="opacity: 1;"><title>level2Approved-&gt;PendingL3Approval</title><path stroke="#000000" fill="none" d="M 535.25,-1331.85 C 535.25,-1319.72,535.25,-1303.22,535.25,-1289.32"></path><path class="solid" stroke="#000000" fill="#000000" d="M 538.75,-1289.31 L 535.25,-1279.31,531.75,-1289.31 Z"></path><text x="550.8" y="-1301.4" text-anchor="middle" font-family="'Times-Roman',serif" font-size="14" fill="#000000"> next </text></g><g class="node"><title>contractPendingCorrectionL2Issue</title><path stroke="#000000" fill="none" d="M 800.25,-1261.2 m -145.81,0 a 145.81,18 0 1,0 291.62,0 a 145.81,18 0 1,0 -291.62,0"></path><text x="800.25" y="-1257" text-anchor="middle" font-family="'Times-Roman',serif" font-size="14" fill="#000000">contractPendingCorrectionL2Issue</text></g><g class="relation" style="opacity: 1;"><title>level2Declined-&gt;contractPendingCorrectionL2Issue</title><path stroke="#000000" fill="none" d="M 715.81,-1332.67 C 731.73,-1319.39,754.4,-1300.46,772.25,-1285.57"></path><path class="solid" stroke="#000000" fill="#000000" d="M 774.63,-1288.14 L 780.07,-1279.05,770.15,-1282.77 Z"></path><text x="773.8" y="-1301.4" text-anchor="middle" font-family="'Times-Roman',serif" font-size="14" fill="#000000"> next </text></g><g class="node"><title>contractCorrectedL2Issue</title><path stroke="#000000" fill="none" d="M 831.25,-1172.4 m -110.55,0 a 110.55,18 0 1,0 221.1,0 a 110.55,18 0 1,0 -221.1,0"></path><text x="831.25" y="-1168.2" text-anchor="middle" font-family="'Times-Roman',serif" font-size="14" fill="#000000">contractCorrectedL2Issue</text></g><g class="relation" style="opacity: 1;"><title>contractPendingCorrectionL2Issue-&gt;contractCorrectedL2Issue</title><path stroke="#000000" fill="none" d="M 806.37,-1243.05 C 810.75,-1230.81,816.72,-1214.09,821.71,-1200.11"></path><path class="solid" stroke="#000000" fill="#000000" d="M 825.07,-1201.11 L 825.14,-1190.51,818.48,-1198.75 Z"></path><text x="883" y="-1212.6" text-anchor="middle" font-family="'Times-Roman',serif" font-size="14" fill="#000000"> contractCorrectionL2 </text></g><g class="relation" style="opacity: 1;"><title>contractCorrectedL2Issue-&gt;PendingL1Approval</title><path stroke="#000000" fill="none" d="M 931.66,-1180.05 C 982.35,-1189.47,1033.25,-1211.15,1033.25,-1260.2,1033.25,-1528.6,1033.25,-1528.6,1033.25,-1528.6,1033.25,-1559.98,1005.16,-1581.99,977.76,-1595.99"></path><path class="solid" stroke="#000000" fill="#000000" d="M 976.03,-1592.94 L 968.54,-1600.44,979.07,-1599.25 Z"></path><text x="1048.8" y="-1390.2" text-anchor="middle" font-family="'Times-Roman',serif" font-size="14" fill="#000000"> next </text></g><g class="node"><title>level3Approved</title><path stroke="#000000" fill="none" d="M 150.25,-1172.4 m -73.5,0 a 73.5,18 0 1,0 147,0 a 73.5,18 0 1,0 -147,0"></path><text x="150.25" y="-1168.2" text-anchor="middle" font-family="'Times-Roman',serif" font-size="14" fill="#000000">level3Approved</text></g><g class="relation" style="opacity: 1;"><title>PendingL3Approval-&gt;level3Approved</title><path stroke="#000000" fill="none" d="M 460.13,-1251.26 C 416.82,-1245.38,361.51,-1236.65,313.06,-1225.2,274.08,-1215.99,230.92,-1202.08,198.84,-1191"></path><path class="solid" stroke="#000000" fill="#000000" d="M 199.85,-1187.64 L 189.26,-1187.65,197.55,-1194.25 Z"></path><text x="358.35" y="-1212.6" text-anchor="middle" font-family="'Times-Roman',serif" font-size="14" fill="#000000"> level3Approve </text></g><g class="node"><title>level3Declined</title><path stroke="#000000" fill="none" d="M 378.25,-1172.4 m -69.48,0 a 69.48,18 0 1,0 138.96,0 a 69.48,18 0 1,0 -138.96,0"></path><text x="378.25" y="-1168.2" text-anchor="middle" font-family="'Times-Roman',serif" font-size="14" fill="#000000">level3Declined</text></g><g class="relation" style="opacity: 1;"><title>PendingL3Approval-&gt;level3Declined</title><path stroke="#000000" fill="none" d="M 476.94,-1247.39 C 459.88,-1242.1,441.74,-1234.88,426.51,-1225.2,415.32,-1218.09,405,-1207.78,396.8,-1198.23"></path><path class="solid" stroke="#000000" fill="#000000" d="M 399.48,-1195.98 L 390.43,-1190.47,394.07,-1200.42 Z"></path><text x="469.62" y="-1212.6" text-anchor="middle" font-family="'Times-Roman',serif" font-size="14" fill="#000000"> level3Decline </text></g><g class="node"><title>PendingL4Approval</title><path stroke="#000000" fill="none" d="M 97.25,-1083.6 m -89.77,0 a 89.77,18 0 1,0 179.54,0 a 89.77,18 0 1,0 -179.54,0"></path><text x="97.25" y="-1079.4" text-anchor="middle" font-family="'Times-Roman',serif" font-size="14" fill="#000000">PendingL4Approval</text></g><g class="relation" style="opacity: 1;"><title>level3Approved-&gt;PendingL4Approval</title><path stroke="#000000" fill="none" d="M 139.78,-1154.25 C 132.16,-1141.77,121.7,-1124.64,113.06,-1110.5"></path><path class="solid" stroke="#000000" fill="#000000" d="M 115.9,-1108.42 L 107.7,-1101.71,109.92,-1112.07 Z"></path><text x="144.8" y="-1123.8" text-anchor="middle" font-family="'Times-Roman',serif" font-size="14" fill="#000000"> next </text></g><g class="node"><title>contractPendingCorrectionL3Issue</title><path stroke="#000000" fill="none" d="M 351.25,-1083.6 m -145.81,0 a 145.81,18 0 1,0 291.62,0 a 145.81,18 0 1,0 -291.62,0"></path><text x="351.25" y="-1079.4" text-anchor="middle" font-family="'Times-Roman',serif" font-size="14" fill="#000000">contractPendingCorrectionL3Issue</text></g><g class="relation" style="opacity: 1;"><title>level3Declined-&gt;contractPendingCorrectionL3Issue</title><path stroke="#000000" fill="none" d="M 372.92,-1154.25 C 369.11,-1142.01,363.91,-1125.29,359.56,-1111.31"></path><path class="solid" stroke="#000000" fill="#000000" d="M 362.89,-1110.22 L 356.57,-1101.71,356.2,-1112.3 Z"></path><text x="382.8" y="-1123.8" text-anchor="middle" font-family="'Times-Roman',serif" font-size="14" fill="#000000"> next </text></g><g class="node"><title>contractCorrectedL3Issue</title><path stroke="#000000" fill="none" d="M 432.25,-994.8 m -110.55,0 a 110.55,18 0 1,0 221.1,0 a 110.55,18 0 1,0 -221.1,0"></path><text x="432.25" y="-990.6" text-anchor="middle" font-family="'Times-Roman',serif" font-size="14" fill="#000000">contractCorrectedL3Issue</text></g><g class="relation" style="opacity: 1;"><title>contractPendingCorrectionL3Issue-&gt;contractCorrectedL3Issue</title><path stroke="#000000" fill="none" d="M 359.73,-1065.59 C 365.57,-1054.89,374.02,-1041.18,383.74,-1030.8,387.79,-1026.48,392.44,-1022.35,397.23,-1018.53"></path><path class="solid" stroke="#000000" fill="#000000" d="M 399.44,-1021.25 L 405.32,-1012.44,395.23,-1015.66 Z"></path><text x="448" y="-1035" text-anchor="middle" font-family="'Times-Roman',serif" font-size="14" fill="#000000"> contractCorrectionL3 </text></g><g class="relation" style="opacity: 1;"><title>contractCorrectedL3Issue-&gt;PendingL3Approval</title><path stroke="#000000" fill="none" d="M 486.57,-1010.72 C 496.12,-1015.66,504.98,-1022.19,511.25,-1030.8,517.13,-1038.88,528.43,-1173.79,533.12,-1232.86"></path><path class="solid" stroke="#000000" fill="#000000" d="M 529.64,-1233.27 L 533.92,-1242.96,536.62,-1232.72 Z"></path><text x="540.8" y="-1123.8" text-anchor="middle" font-family="'Times-Roman',serif" font-size="14" fill="#000000"> next </text></g><g class="node"><title>level4Approved</title><path stroke="#000000" fill="none" d="M 73.25,-994.8 m -73.5,0 a 73.5,18 0 1,0 147,0 a 73.5,18 0 1,0 -147,0"></path><text x="73.25" y="-990.6" text-anchor="middle" font-family="'Times-Roman',serif" font-size="14" fill="#000000">level4Approved</text></g><g class="relation" style="opacity: 1;"><title>PendingL4Approval-&gt;level4Approved</title><path stroke="#000000" fill="none" d="M 92.51,-1065.45 C 89.15,-1053.32,84.59,-1036.82,80.75,-1022.92"></path><path class="solid" stroke="#000000" fill="#000000" d="M 84.02,-1021.62 L 77.98,-1012.91,77.27,-1023.48 Z"></path><text x="133.35" y="-1035" text-anchor="middle" font-family="'Times-Roman',serif" font-size="14" fill="#000000"> level4Approve </text></g><g class="node"><title>level4Declined</title><path stroke="#000000" fill="none" d="M 234.25,-994.8 m -69.48,0 a 69.48,18 0 1,0 138.96,0 a 69.48,18 0 1,0 -138.96,0"></path><text x="234.25" y="-990.6" text-anchor="middle" font-family="'Times-Roman',serif" font-size="14" fill="#000000">level4Declined</text></g><g class="relation" style="opacity: 1;"><title>PendingL4Approval-&gt;level4Declined</title><path stroke="#000000" fill="none" d="M 142.16,-1067.92 C 155.61,-1062.54,170.03,-1055.73,182.25,-1047.6,193.69,-1039.99,204.71,-1029.6,213.65,-1020.13"></path><path class="solid" stroke="#000000" fill="#000000" d="M 216.48,-1022.21 L 220.62,-1012.46,211.3,-1017.5 Z"></path><text x="245.62" y="-1035" text-anchor="middle" font-family="'Times-Roman',serif" font-size="14" fill="#000000"> level4Decline </text></g><g class="node"><title>PendingL5Approval</title><path stroke="#000000" fill="none" d="M 119.25,-906 m -89.77,0 a 89.77,18 0 1,0 179.54,0 a 89.77,18 0 1,0 -179.54,0"></path><text x="119.25" y="-901.8" text-anchor="middle" font-family="'Times-Roman',serif" font-size="14" fill="#000000">PendingL5Approval</text></g><g class="relation" style="opacity: 1;"><title>level4Approved-&gt;PendingL5Approval</title><path stroke="#000000" fill="none" d="M 82.34,-976.65 C 88.89,-964.29,97.86,-947.37,105.31,-933.3"></path><path class="solid" stroke="#000000" fill="#000000" d="M 108.59,-934.59 L 110.18,-924.11,102.4,-931.31 Z"></path><text x="116.8" y="-946.2" text-anchor="middle" font-family="'Times-Roman',serif" font-size="14" fill="#000000"> next </text></g><g class="node"><title>contractPendingCorrectionL4Issue</title><path stroke="#000000" fill="none" d="M 381.25,-906 m -145.81,0 a 145.81,18 0 1,0 291.62,0 a 145.81,18 0 1,0 -291.62,0"></path><text x="381.25" y="-901.8" text-anchor="middle" font-family="'Times-Roman',serif" font-size="14" fill="#000000">contractPendingCorrectionL4Issue</text></g><g class="relation" style="opacity: 1;"><title>level4Declined-&gt;contractPendingCorrectionL4Issue</title><path stroke="#000000" fill="none" d="M 260.87,-978.08 C 284.11,-964.36,318.08,-944.3,344.01,-928.99"></path><path class="solid" stroke="#000000" fill="#000000" d="M 345.99,-931.88 L 352.82,-923.79,342.43,-925.86 Z"></path><text x="336.8" y="-946.2" text-anchor="middle" font-family="'Times-Roman',serif" font-size="14" fill="#000000"> next </text></g><g class="node"><title>contractCorrectedL4Issue</title><path stroke="#000000" fill="none" d="M 478.25,-817.2 m -110.55,0 a 110.55,18 0 1,0 221.1,0 a 110.55,18 0 1,0 -221.1,0"></path><text x="478.25" y="-813" text-anchor="middle" font-family="'Times-Roman',serif" font-size="14" fill="#000000">contractCorrectedL4Issue</text></g><g class="relation" style="opacity: 1;"><title>contractPendingCorrectionL4Issue-&gt;contractCorrectedL4Issue</title><path stroke="#000000" fill="none" d="M 395.77,-887.88 C 405.02,-877.38,417.54,-863.94,429.74,-853.2,434.55,-848.97,439.86,-844.74,445.15,-840.77"></path><path class="solid" stroke="#000000" fill="#000000" d="M 447.36,-843.49 L 453.36,-834.76,443.22,-837.84 Z"></path><text x="494" y="-857.4" text-anchor="middle" font-family="'Times-Roman',serif" font-size="14" fill="#000000"> contractCorrectionL4 </text></g><g class="relation" style="opacity: 1;"><title>contractCorrectedL4Issue-&gt;PendingL3Approval</title><path stroke="#000000" fill="none" d="M 529.9,-833.14 C 540.11,-838.12,549.93,-844.66,557.25,-853.2,572.77,-871.3,571.25,-881.15,571.25,-905,571.25,-1173.4,571.25,-1173.4,571.25,-1173.4,571.25,-1195.15,561.49,-1217.78,552.13,-1234.49"></path><path class="solid" stroke="#000000" fill="#000000" d="M 549.11,-1232.72 L 547.04,-1243.11,555.14,-1236.28 Z"></path><text x="586.8" y="-1035" text-anchor="middle" font-family="'Times-Roman',serif" font-size="14" fill="#000000"> next </text></g><g class="node"><title>level5Approved</title><path stroke="#000000" fill="none" d="M 119.25,-817.2 m -73.5,0 a 73.5,18 0 1,0 147,0 a 73.5,18 0 1,0 -147,0"></path><text x="119.25" y="-813" text-anchor="middle" font-family="'Times-Roman',serif" font-size="14" fill="#000000">level5Approved</text></g><g class="relation" style="opacity: 1;"><title>PendingL5Approval-&gt;level5Approved</title><path stroke="#000000" fill="none" d="M 119.25,-887.85 C 119.25,-875.72,119.25,-859.22,119.25,-845.32"></path><path class="solid" stroke="#000000" fill="#000000" d="M 122.75,-845.31 L 119.25,-835.31,115.75,-845.31 Z"></path><text x="164.35" y="-857.4" text-anchor="middle" font-family="'Times-Roman',serif" font-size="14" fill="#000000"> level5Approve </text></g><g class="node"><title>level5Declined</title><path stroke="#000000" fill="none" d="M 280.25,-817.2 m -69.48,0 a 69.48,18 0 1,0 138.96,0 a 69.48,18 0 1,0 -138.96,0"></path><text x="280.25" y="-813" text-anchor="middle" font-family="'Times-Roman',serif" font-size="14" fill="#000000">level5Declined</text></g><g class="relation" style="opacity: 1;"><title>PendingL5Approval-&gt;level5Declined</title><path stroke="#000000" fill="none" d="M 166.38,-890.59 C 181.77,-885.07,198.64,-878.12,213.25,-870,227.66,-861.99,242.3,-851.06,254.2,-841.3"></path><path class="solid" stroke="#000000" fill="#000000" d="M 256.56,-843.9 L 261.97,-834.79,252.06,-838.53 Z"></path><text x="281.62" y="-857.4" text-anchor="middle" font-family="'Times-Roman',serif" font-size="14" fill="#000000"> level5Decline </text></g><g class="node"><title>PreparingPartBSign</title><path stroke="#000000" fill="none" d="M 164.25,-728.4 m -88.06,0 a 88.06,18 0 1,0 176.12,0 a 88.06,18 0 1,0 -176.12,0"></path><text x="164.25" y="-724.2" text-anchor="middle" font-family="'Times-Roman',serif" font-size="14" fill="#000000">PreparingPartBSign</text></g><g class="relation" style="opacity: 1;"><title>level5Approved-&gt;PreparingPartBSign</title><path stroke="#000000" fill="none" d="M 128.14,-799.05 C 134.55,-786.69,143.32,-769.77,150.61,-755.7"></path><path class="solid" stroke="#000000" fill="#000000" d="M 153.88,-757 L 155.38,-746.51,147.67,-753.78 Z"></path><text x="161.8" y="-768.6" text-anchor="middle" font-family="'Times-Roman',serif" font-size="14" fill="#000000"> next </text></g><g class="node"><title>contractPendingCorrectionL5Issue</title><path stroke="#000000" fill="none" d="M 434.25,-728.4 m -145.81,0 a 145.81,18 0 1,0 291.62,0 a 145.81,18 0 1,0 -291.62,0"></path><text x="434.25" y="-724.2" text-anchor="middle" font-family="'Times-Roman',serif" font-size="14" fill="#000000">contractPendingCorrectionL5Issue</text></g><g class="relation" style="opacity: 1;"><title>level5Declined-&gt;contractPendingCorrectionL5Issue</title><path stroke="#000000" fill="none" d="M 308.14,-800.48 C 332.67,-786.66,368.61,-766.4,395.86,-751.04"></path><path class="solid" stroke="#000000" fill="#000000" d="M 397.74,-754 L 404.73,-746.04,394.3,-747.9 Z"></path><text x="386.8" y="-768.6" text-anchor="middle" font-family="'Times-Roman',serif" font-size="14" fill="#000000"> next </text></g><g class="node"><title>contractCorrectedL5Issue</title><path stroke="#000000" fill="none" d="M 489.25,-639.6 m -110.55,0 a 110.55,18 0 1,0 221.1,0 a 110.55,18 0 1,0 -221.1,0"></path><text x="489.25" y="-635.4" text-anchor="middle" font-family="'Times-Roman',serif" font-size="14" fill="#000000">contractCorrectedL5Issue</text></g><g class="relation" style="opacity: 1;"><title>contractPendingCorrectionL5Issue-&gt;contractCorrectedL5Issue</title><path stroke="#000000" fill="none" d="M 445.12,-710.25 C 453.03,-697.77,463.88,-680.64,472.84,-666.5"></path><path class="solid" stroke="#000000" fill="#000000" d="M 476.01,-668.03 L 478.41,-657.71,470.1,-664.29 Z"></path><text x="531" y="-679.8" text-anchor="middle" font-family="'Times-Roman',serif" font-size="14" fill="#000000"> contractCorrectionL5 </text></g><g class="relation" style="opacity: 1;"><title>contractCorrectedL5Issue-&gt;PendingL3Approval</title><path stroke="#000000" fill="none" d="M 562.02,-653.25 C 575.69,-658.36,588.91,-665.53,599.25,-675.6,616.71,-692.61,617.25,-703.03,617.25,-727.4,617.25,-1173.4,617.25,-1173.4,617.25,-1173.4,617.25,-1201.03,595.02,-1223.43,573.7,-1238.54"></path><path class="solid" stroke="#000000" fill="#000000" d="M 571.67,-1235.69 L 565.32,-1244.17,575.57,-1241.5 Z"></path><text x="632.8" y="-946.2" text-anchor="middle" font-family="'Times-Roman',serif" font-size="14" fill="#000000"> next </text></g><g class="node"><title>PendingPartBSign</title><path stroke="#000000" fill="none" d="M 198.25,-639.6 m -82.28,0 a 82.28,18 0 1,0 164.56,0 a 82.28,18 0 1,0 -164.56,0"></path><text x="198.25" y="-635.4" text-anchor="middle" font-family="'Times-Roman',serif" font-size="14" fill="#000000">PendingPartBSign</text></g><g class="relation" style="opacity: 1;"><title>PreparingPartBSign-&gt;PendingPartBSign</title><path stroke="#000000" fill="none" d="M 170.97,-710.25 C 175.76,-698.01,182.31,-681.29,187.79,-667.31"></path><path class="solid" stroke="#000000" fill="#000000" d="M 191.16,-668.3 L 191.55,-657.71,184.64,-665.75 Z"></path><text x="238.51" y="-679.8" text-anchor="middle" font-family="'Times-Roman',serif" font-size="14" fill="#000000"> preparePartBSign </text></g><g class="node"><title>PartBSigned</title><path stroke="#000000" fill="none" d="M 198.25,-550.8 m -59.71,0 a 59.71,18 0 1,0 119.42,0 a 59.71,18 0 1,0 -119.42,0"></path><text x="198.25" y="-546.6" text-anchor="middle" font-family="'Times-Roman',serif" font-size="14" fill="#000000">PartBSigned</text></g><g class="relation" style="opacity: 1;"><title>PendingPartBSign-&gt;PartBSigned</title><path stroke="#000000" fill="none" d="M 198.25,-621.45 C 198.25,-609.32,198.25,-592.82,198.25,-578.92"></path><path class="solid" stroke="#000000" fill="#000000" d="M 201.75,-578.91 L 198.25,-568.91,194.75,-578.91 Z"></path><text x="230.14" y="-591" text-anchor="middle" font-family="'Times-Roman',serif" font-size="14" fill="#000000"> partBSign </text></g><g class="node"><title>PartBDeclined</title><path stroke="#000000" fill="none" d="M 386.25,-550.8 m -67.77,0 a 67.77,18 0 1,0 135.54,0 a 67.77,18 0 1,0 -135.54,0"></path><text x="386.25" y="-546.6" text-anchor="middle" font-family="'Times-Roman',serif" font-size="14" fill="#000000">PartBDeclined</text></g><g class="relation" style="opacity: 1;"><title>PendingPartBSign-&gt;PartBDeclined</title><path stroke="#000000" fill="none" d="M 231.86,-623.08 C 263.43,-608.51,310.76,-586.66,344.68,-570.99"></path><path class="solid" stroke="#000000" fill="#000000" d="M 346.26,-574.12 L 353.87,-566.75,343.33,-567.76 Z"></path><text x="362.9" y="-591" text-anchor="middle" font-family="'Times-Roman',serif" font-size="14" fill="#000000"> partBSignDecline </text></g><g class="node"><title>PreparingPartASign</title><path stroke="#000000" fill="none" d="M 198.25,-462 m -88.62,0 a 88.62,18 0 1,0 177.24,0 a 88.62,18 0 1,0 -177.24,0"></path><text x="198.25" y="-457.8" text-anchor="middle" font-family="'Times-Roman',serif" font-size="14" fill="#000000">PreparingPartASign</text></g><g class="relation" style="opacity: 1;"><title>PartBSigned-&gt;PreparingPartASign</title><path stroke="#000000" fill="none" d="M 198.25,-532.65 C 198.25,-520.52,198.25,-504.02,198.25,-490.12"></path><path class="solid" stroke="#000000" fill="#000000" d="M 201.75,-490.11 L 198.25,-480.11,194.75,-490.11 Z"></path><text x="213.8" y="-502.2" text-anchor="middle" font-family="'Times-Roman',serif" font-size="14" fill="#000000"> next </text></g><g class="node"><title>contractPendingCorrectionL100Issue</title><path stroke="#000000" fill="none" d="M 473.25,-462 m -155.12,0 a 155.12,18 0 1,0 310.24,0 a 155.12,18 0 1,0 -310.24,0"></path><text x="473.25" y="-457.8" text-anchor="middle" font-family="'Times-Roman',serif" font-size="14" fill="#000000">contractPendingCorrectionL100Issue</text></g><g class="relation" style="opacity: 1;"><title>PartBDeclined-&gt;contractPendingCorrectionL100Issue</title><path stroke="#000000" fill="none" d="M 403.02,-533.06 C 416.06,-520.06,434.32,-501.84,448.95,-487.24"></path><path class="solid" stroke="#000000" fill="#000000" d="M 451.62,-489.52 L 456.23,-479.98,446.68,-484.57 Z"></path><text x="453.8" y="-502.2" text-anchor="middle" font-family="'Times-Roman',serif" font-size="14" fill="#000000"> next </text></g><g class="node"><title>contractCorrectedL100Issue</title><path stroke="#000000" fill="none" d="M 584.25,-373.2 m -120.36,0 a 120.36,18 0 1,0 240.72,0 a 120.36,18 0 1,0 -240.72,0"></path><text x="584.25" y="-369" text-anchor="middle" font-family="'Times-Roman',serif" font-size="14" fill="#000000">contractCorrectedL100Issue</text></g><g class="relation" style="opacity: 1;"><title>contractPendingCorrectionL100Issue-&gt;contractCorrectedL100Issue</title><path stroke="#000000" fill="none" d="M 481.51,-443.81 C 487.53,-432.76,496.56,-418.74,507.74,-409.2,514.36,-403.55,522.05,-398.64,529.94,-394.42"></path><path class="solid" stroke="#000000" fill="#000000" d="M 531.51,-397.55 L 538.89,-389.96,528.38,-391.29 Z"></path><text x="579" y="-413.4" text-anchor="middle" font-family="'Times-Roman',serif" font-size="14" fill="#000000"> contractCorrectionL100 </text></g><g class="relation" style="opacity: 1;"><title>contractCorrectedL100Issue-&gt;PendingL3Approval</title><path stroke="#000000" fill="none" d="M 626.15,-390.26 C 634.79,-395.22,643.12,-401.47,649.25,-409.2,664.07,-427.89,663.25,-437.15,663.25,-461,663.25,-1173.4,663.25,-1173.4,663.25,-1173.4,663.25,-1208.1,630.63,-1229.89,598.32,-1242.96"></path><path class="solid" stroke="#000000" fill="#000000" d="M 596.9,-1239.75 L 588.79,-1246.57,599.38,-1246.29 Z"></path><text x="678.8" y="-813" text-anchor="middle" font-family="'Times-Roman',serif" font-size="14" fill="#000000"> next </text></g><g class="node"><title>PendingPartASign</title><path stroke="#000000" fill="none" d="M 198.25,-373.2 m -82.85,0 a 82.85,18 0 1,0 165.7,0 a 82.85,18 0 1,0 -165.7,0"></path><text x="198.25" y="-369" text-anchor="middle" font-family="'Times-Roman',serif" font-size="14" fill="#000000">PendingPartASign</text></g><g class="relation" style="opacity: 1;"><title>PreparingPartASign-&gt;PendingPartASign</title><path stroke="#000000" fill="none" d="M 198.25,-443.85 C 198.25,-431.72,198.25,-415.22,198.25,-401.32"></path><path class="solid" stroke="#000000" fill="#000000" d="M 201.75,-401.31 L 198.25,-391.31,194.75,-401.31 Z"></path><text x="251.9" y="-413.4" text-anchor="middle" font-family="'Times-Roman',serif" font-size="14" fill="#000000"> preparePartASign </text></g><g class="node"><title>PartASigned</title><path stroke="#000000" fill="none" d="M 198.25,-284.4 m -60.27,0 a 60.27,18 0 1,0 120.54,0 a 60.27,18 0 1,0 -120.54,0"></path><text x="198.25" y="-280.2" text-anchor="middle" font-family="'Times-Roman',serif" font-size="14" fill="#000000">PartASigned</text></g><g class="relation" style="opacity: 1;"><title>PendingPartASign-&gt;PartASigned</title><path stroke="#000000" fill="none" d="M 198.25,-355.05 C 198.25,-342.92,198.25,-326.42,198.25,-312.52"></path><path class="solid" stroke="#000000" fill="#000000" d="M 201.75,-312.51 L 198.25,-302.51,194.75,-312.51 Z"></path><text x="230.52" y="-324.6" text-anchor="middle" font-family="'Times-Roman',serif" font-size="14" fill="#000000"> partASign </text></g><g class="node"><title>Finalizing</title><path stroke="#000000" fill="none" d="M 198.25,-195.6 m -50.4,0 a 50.4,18 0 1,0 100.8,0 a 50.4,18 0 1,0 -100.8,0"></path><text x="198.25" y="-191.4" text-anchor="middle" font-family="'Times-Roman',serif" font-size="14" fill="#000000">Finalizing</text></g><g class="relation" style="opacity: 1;"><title>PartASigned-&gt;Finalizing</title><path stroke="#000000" fill="none" d="M 198.25,-266.25 C 198.25,-254.12,198.25,-237.62,198.25,-223.72"></path><path class="solid" stroke="#000000" fill="#000000" d="M 201.75,-223.71 L 198.25,-213.71,194.75,-223.71 Z"></path><text x="213.8" y="-235.8" text-anchor="middle" font-family="'Times-Roman',serif" font-size="14" fill="#000000"> next </text></g><g class="node"><title>Finalized</title><path stroke="#000000" fill="none" d="M 198.25,-106.8 m -46.95,0 a 46.95,18 0 1,0 93.9,0 a 46.95,18 0 1,0 -93.9,0"></path><text x="198.25" y="-102.6" text-anchor="middle" font-family="'Times-Roman',serif" font-size="14" fill="#000000">Finalized</text></g><g class="relation" style="opacity: 1;"><title>Finalizing-&gt;Finalized</title><path stroke="#000000" fill="none" d="M 198.25,-177.45 C 198.25,-165.32,198.25,-148.82,198.25,-134.92"></path><path class="solid" stroke="#000000" fill="#000000" d="M 201.75,-134.91 L 198.25,-124.91,194.75,-134.91 Z"></path><text x="222.74" y="-147" text-anchor="middle" font-family="'Times-Roman',serif" font-size="14" fill="#000000"> finalize </text></g><g class="node"><title>Finished</title><path stroke="#000000" fill="none" d="M 198.25,-18 m -44.1,0 a 44.1,18 0 1,0 88.2,0 a 44.1,18 0 1,0 -88.2,0"></path><text x="198.25" y="-13.8" text-anchor="middle" font-family="'Times-Roman',serif" font-size="14" fill="#000000">Finished</text></g><g class="relation" style="opacity: 1;"><title>Finalized-&gt;Finished</title><path stroke="#000000" fill="none" d="M 198.25,-88.65 C 198.25,-76.52,198.25,-60.02,198.25,-46.12"></path><path class="solid" stroke="#000000" fill="#000000" d="M 201.75,-46.11 L 198.25,-36.11,194.75,-46.11 Z"></path><text x="213.8" y="-58.2" text-anchor="middle" font-family="'Times-Roman',serif" font-size="14" fill="#000000"> next </text></g></g></g></svg>